<mxfile host="app.diagrams.net" modified="2024-02-22T10:46:48.217Z" agent="Mozilla/5.0 (Windows NT 6.1; Win64; x64) AppleWebKit/537.36 (KHTML, like Gecko) Chrome/109.0.0.0 Safari/537.36" version="23.1.5" etag="KOddlaG9d_V_B-tmJ6ti" type="github">
  <diagram name="Trang-1" id="I40d7bDoAF0YKuTwU6rQ">
    <mxGraphModel>
      <root>
        <mxCell id="0" />
        <mxCell id="1" parent="0" />
      </root>
    </mxGraphModel>
  </diagram>
</mxfile>
